<svg width="1070" height="324" viewBox="0 0 1070 324" fill="none" xmlns="http://www.w3.org/2000/svg">
<path d="M40 42C40 40.8954 40.8954 40 42 40H1028C1029.1 40 1030 40.8954 1030 42V282C1030 283.105 1029.1 284 1028 284H42C40.8954 284 40 283.105 40 282V42Z" fill="white"/>
<path d="M42 41H1028V39H42V41ZM1029 42V282H1031V42H1029ZM1028 283H42V285H1028V283ZM41 282V42H39V282H41ZM42 283C41.4477 283 41 282.552 41 282H39C39 283.657 40.3431 285 42 285V283ZM1029 282C1029 282.552 1028.55 283 1028 283V285C1029.66 285 1031 283.657 1031 282H1029ZM1028 41C1028.55 41 1029 41.4477 1029 42H1031C1031 40.3432 1029.66 39 1028 39V41ZM42 39C40.3431 39 39 40.3431 39 42H41C41 41.4477 41.4477 41 42 41V39Z" fill="black" fill-opacity="0.1"/>
<path d="M175 62C180.304 62 185.391 64.1071 189.142 67.8579C192.893 71.6086 195 76.6957 195 82C195 87.3043 192.893 92.3914 189.142 96.1421C185.391 99.8929 180.304 102 175 102C169.696 102 164.609 99.8929 160.858 96.1421C157.107 92.3914 155 87.3043 155 82C155 76.6957 157.107 71.6086 160.858 67.8579C164.609 64.1071 169.696 62 175 62ZM160 112H190C195.304 112 200.391 114.107 204.142 117.858C207.893 121.609 210 126.696 210 132V187H195V262H155V187H140V132C140 126.696 142.107 121.609 145.858 117.858C149.609 114.107 154.696 112 160 112Z" fill="#FAD58E"/>
<path d="M319 62C324.304 62 329.391 64.1071 333.142 67.8579C336.893 71.6086 339 76.6957 339 82C339 87.3043 336.893 92.3914 333.142 96.1421C329.391 99.8929 324.304 102 319 102C313.696 102 308.609 99.8929 304.858 96.1421C301.107 92.3914 299 87.3043 299 82C299 76.6957 301.107 71.6086 304.858 67.8579C308.609 64.1071 313.696 62 319 62ZM304 112H334C339.304 112 344.391 114.107 348.142 117.858C351.893 121.609 354 126.696 354 132V187H339V262H299V187H284V132C284 126.696 286.107 121.609 289.858 117.858C293.609 114.107 298.696 112 304 112Z" fill="#FAD58E"/>
<path d="M463 62C468.304 62 473.391 64.1071 477.142 67.8579C480.893 71.6086 483 76.6957 483 82C483 87.3043 480.893 92.3914 477.142 96.1421C473.391 99.8929 468.304 102 463 102C457.696 102 452.609 99.8929 448.858 96.1421C445.107 92.3914 443 87.3043 443 82C443 76.6957 445.107 71.6086 448.858 67.8579C452.609 64.1071 457.696 62 463 62ZM448 112H478C483.304 112 488.391 114.107 492.142 117.858C495.893 121.609 498 126.696 498 132V187H483V262H443V187H428V132C428 126.696 430.107 121.609 433.858 117.858C437.609 114.107 442.696 112 448 112Z" fill="#FAD58E"/>
<path d="M607 62C612.304 62 617.391 64.1071 621.142 67.8579C624.893 71.6086 627 76.6957 627 82C627 87.3043 624.893 92.3914 621.142 96.1421C617.391 99.8929 612.304 102 607 102C601.696 102 596.609 99.8929 592.858 96.1421C589.107 92.3914 587 87.3043 587 82C587 76.6957 589.107 71.6086 592.858 67.8579C596.609 64.1071 601.696 62 607 62ZM592 112H622C627.304 112 632.391 114.107 636.142 117.858C639.893 121.609 642 126.696 642 132V187H627V262H587V187H572V132C572 126.696 574.107 121.609 577.858 117.858C581.609 114.107 586.696 112 592 112Z" fill="#FAD58E"/>
<path d="M751 62C756.304 62 761.391 64.1071 765.142 67.8579C768.893 71.6086 771 76.6957 771 82C771 87.3043 768.893 92.3914 765.142 96.1421C761.391 99.8929 756.304 102 751 102C745.696 102 740.609 99.8929 736.858 96.1421C733.107 92.3914 731 87.3043 731 82C731 76.6957 733.107 71.6086 736.858 67.8579C740.609 64.1071 745.696 62 751 62ZM736 112H766C771.304 112 776.391 114.107 780.142 117.858C783.893 121.609 786 126.696 786 132V187H771V262H731V187H716V132C716 126.696 718.107 121.609 721.858 117.858C725.609 114.107 730.696 112 736 112Z" fill="#FAD58E"/>
<path d="M895 62C900.304 62 905.391 64.1071 909.142 67.8579C912.893 71.6086 915 76.6957 915 82C915 87.3043 912.893 92.3914 909.142 96.1421C905.391 99.8929 900.304 102 895 102C889.696 102 884.609 99.8929 880.858 96.1421C877.107 92.3914 875 87.3043 875 82C875 76.6957 877.107 71.6086 880.858 67.8579C884.609 64.1071 889.696 62 895 62ZM880 112H910C915.304 112 920.391 114.107 924.142 117.858C927.893 121.609 930 126.696 930 132V187H915V262H875V187H860V132C860 126.696 862.107 121.609 865.858 117.858C869.609 114.107 874.696 112 880 112Z" fill="black"/>
</svg>
